<svg xmlns="http://www.w3.org/2000/svg" width="6" height="22" fill="none"><path fill="#9BE1A0" d="M1.263 12.75c.084.87.226 1.516.42 1.943.198.425.548.637 1.054.637.094 0 .179-.015.263-.032.086.017.17.032.265.032.504 0 .856-.212 1.052-.637.196-.427.335-1.073.42-1.943l.45-6.718c.083-1.31.125-2.249.125-2.819 0-.776-.202-1.382-.608-1.817C4.296.961 3.76.745 3.097.745c-.035 0-.062.007-.097.009-.033-.002-.06-.01-.094-.01-.665 0-1.2.217-1.607.652-.406.436-.61 1.042-.61 1.817 0 .57.042 1.51.126 2.82l.448 6.717Zm1.754 5.036c-.644 0-1.191.203-1.646.609-.454.407-.681.9-.681 1.48 0 .654.23 1.169.687 1.543.46.374.995.561 1.607.561.623 0 1.167-.184 1.632-.554.464-.368.696-.886.696-1.55 0-.579-.222-1.073-.666-1.48-.445-.406-.987-.61-1.63-.61"/></svg>